# xmcd
#
# Track frame offsets: 
#        150
#        8900
#        23160
#        32970
#        46195
#        57725
#        72110
#        81330
#        92375
#        105585
#        121320
#        130200
#        141735
#        146715
#        153770
#        165160
#        173207
#
# Disc length: 2370 seconds
#
# Revision: 0
# Processed by: cddbd v1.5.2PL0 Copyright (c) Steve Scherf et al.
# Submitted via: ExactAudioCopy v0.95a5
#
DISCID=e3094011
DTITLE=Nashville Neurotics - It's A Good Year For A Hardcore Country B
DTITLE=oy
DYEAR=1900
DGENRE=Country Rock
TTITLE0=Take Me Back To Tulsa
TTITLE1=Away From Her Door
TTITLE2=Cry Cry Cry No5
TTITLE3=Thuesday Cryin' Time
TTITLE4=Cincinnati
TTITLE5=Gonna Go To Denver
TTITLE6=Stampede
TTITLE7=Dixieland Mind
TTITLE8=Fill The Glass Up High
TTITLE9=For The Undertakers Daughter
TTITLE10=Keep On Diggin' My Grave
TTITLE11=Rocky Top
TTITLE12=Cattle Call
TTITLE13=Go Hog Wild
TTITLE14=Still Doin' Time
TTITLE15=Mexican Letter
TTITLE16=Untitled
EXTD=
EXTT0=
EXTT1=
EXTT2=
EXTT3=
EXTT4=
EXTT5=
EXTT6=
EXTT7=
EXTT8=
EXTT9=
EXTT10=
EXTT11=
EXTT12=
EXTT13=
EXTT14=
EXTT15=
EXTT16=
PLAYORDER=
